<svg xmlns="http://www.w3.org/2000/svg" viewBox="0 0 375 565" width="375" height="565">
<rect x="0" y="0" width="375" height="565" fill="rgb(249,250,251)" />
<text x='24' y='44.4' font-family='"Inter", "Apple SD Gothic Neo", "Pretendard", "Noto Sans KR", sans-serif' font-size='24' font-weight='700' font-style='normal' fill='rgb(34,34,34)' text-anchor='start'><tspan x="24" dy="0">약관 재동의하기</tspan></text>
<text x='24' y='78.75' font-family='"Inter", "Apple SD Gothic Neo", "Pretendard", "Noto Sans KR", sans-serif' font-size='15' font-weight='400' font-style='normal' fill='rgb(102,102,102)' text-anchor='start'><tspan x="24" dy="0">서비스 이용을 위해 재동의가 필요한 약관이 있습니다. 약관을 확인 후 동의해 주세요.</tspan></text>
<rect x="24" y="174" width="327" height="78" fill="rgb(255,255,255)" rx="16" ry="16" />
<line x1="47" y1="224.67" x2="45.3489" y2="223.984" stroke="rgb(79,140,255)" stroke-width="2.3333333333333335" stroke-linecap="round" /><line x1="45.3489" y1="223.984" x2="44.67" y2="222.33" stroke="rgb(79,140,255)" stroke-width="2.3333333333333335" stroke-linecap="round" /><line x1="44.67" y1="222.33" x2="44.67" y2="203.67" stroke="rgb(79,140,255)" stroke-width="2.3333333333333335" stroke-linecap="round" /><line x1="44.67" y1="203.67" x2="45.3489" y2="202.016" stroke="rgb(79,140,255)" stroke-width="2.3333333333333335" stroke-linecap="round" /><line x1="45.3489" y1="202.016" x2="47" y2="201.33" stroke="rgb(79,140,255)" stroke-width="2.3333333333333335" stroke-linecap="round" /><line x1="47" y1="201.33" x2="56.33" y2="201.33" stroke="rgb(79,140,255)" stroke-width="2.3333333333333335" stroke-linecap="round" /><line x1="56.33" y1="201.33" x2="58.32" y2="202.16" stroke="rgb(79,140,255)" stroke-width="2.3333333333333335" stroke-linecap="round" /><line x1="58.32" y1="202.16" x2="62.51" y2="206.34" stroke="rgb(79,140,255)" stroke-width="2.3333333333333335" stroke-linecap="round" /><line x1="62.51" y1="206.34" x2="63.33" y2="208.33" stroke="rgb(79,140,255)" stroke-width="2.3333333333333335" stroke-linecap="round" /><line x1="63.33" y1="208.33" x2="63.33" y2="222.33" stroke="rgb(79,140,255)" stroke-width="2.3333333333333335" stroke-linecap="round" /><line x1="63.33" y1="222.33" x2="62.6511" y2="223.984" stroke="rgb(79,140,255)" stroke-width="2.3333333333333335" stroke-linecap="round" /><line x1="62.6511" y1="223.984" x2="61" y2="224.67" stroke="rgb(79,140,255)" stroke-width="2.3333333333333335" stroke-linecap="round" /><line x1="61" y1="224.67" x2="47" y2="224.67" stroke="rgb(79,140,255)" stroke-width="2.3333333333333335" stroke-linecap="round" />
<line x1="56.33" y1="201.33" x2="56.33" y2="207.17" stroke="rgb(79,140,255)" stroke-width="2.3333333333333335" stroke-linecap="round" /><line x1="56.33" y1="207.17" x2="57.5" y2="208.33" stroke="rgb(79,140,255)" stroke-width="2.3333333333333335" stroke-linecap="round" /><line x1="57.5" y1="208.33" x2="63.33" y2="208.33" stroke="rgb(79,140,255)" stroke-width="2.3333333333333335" stroke-linecap="round" /><line x1="51.67" y1="209.5" x2="49.33" y2="209.5" stroke="rgb(79,140,255)" stroke-width="2.3333333333333335" stroke-linecap="round" /><line x1="58.67" y1="214.17" x2="49.33" y2="214.17" stroke="rgb(79,140,255)" stroke-width="2.3333333333333335" stroke-linecap="round" /><line x1="58.67" y1="218.83" x2="49.33" y2="218.83" stroke="rgb(79,140,255)" stroke-width="2.3333333333333335" stroke-linecap="round" />
<text x='84' y='203.6' font-family='"Inter", "Apple SD Gothic Neo", "Pretendard", "Noto Sans KR", sans-serif' font-size='16' font-weight='500' font-style='normal' fill='rgb(34,34,34)' text-anchor='start'><tspan x="84" dy="0">서비스 이용약관 (필수)</tspan></text>
<text x='84' y='228.05' font-family='"Inter", "Apple SD Gothic Neo", "Pretendard", "Noto Sans KR", sans-serif' font-size='13' font-weight='400' font-style='normal' fill='rgb(136,136,136)' text-anchor='start'><tspan x="84" dy="0">자세히 보기</tspan></text>
<line x1="322.5" y1="218" x2="327.5" y2="213" stroke="rgb(176,176,176)" stroke-width="1.6666666666666667" stroke-linecap="round" /><line x1="327.5" y1="213" x2="322.5" y2="208" stroke="rgb(176,176,176)" stroke-width="1.6666666666666667" stroke-linecap="round" />
<rect x="24" y="268" width="327" height="78" fill="rgb(255,255,255)" rx="16" ry="16" />
<line x1="47" y1="318.67" x2="45.3489" y2="317.984" stroke="rgb(79,140,255)" stroke-width="2.3333333333333335" stroke-linecap="round" /><line x1="45.3489" y1="317.984" x2="44.67" y2="316.33" stroke="rgb(79,140,255)" stroke-width="2.3333333333333335" stroke-linecap="round" /><line x1="44.67" y1="316.33" x2="44.67" y2="297.67" stroke="rgb(79,140,255)" stroke-width="2.3333333333333335" stroke-linecap="round" /><line x1="44.67" y1="297.67" x2="45.3489" y2="296.016" stroke="rgb(79,140,255)" stroke-width="2.3333333333333335" stroke-linecap="round" /><line x1="45.3489" y1="296.016" x2="47" y2="295.33" stroke="rgb(79,140,255)" stroke-width="2.3333333333333335" stroke-linecap="round" /><line x1="47" y1="295.33" x2="56.33" y2="295.33" stroke="rgb(79,140,255)" stroke-width="2.3333333333333335" stroke-linecap="round" /><line x1="56.33" y1="295.33" x2="58.32" y2="296.16" stroke="rgb(79,140,255)" stroke-width="2.3333333333333335" stroke-linecap="round" /><line x1="58.32" y1="296.16" x2="62.51" y2="300.34" stroke="rgb(79,140,255)" stroke-width="2.3333333333333335" stroke-linecap="round" /><line x1="62.51" y1="300.34" x2="63.33" y2="302.33" stroke="rgb(79,140,255)" stroke-width="2.3333333333333335" stroke-linecap="round" /><line x1="63.33" y1="302.33" x2="63.33" y2="316.33" stroke="rgb(79,140,255)" stroke-width="2.3333333333333335" stroke-linecap="round" /><line x1="63.33" y1="316.33" x2="62.6511" y2="317.984" stroke="rgb(79,140,255)" stroke-width="2.3333333333333335" stroke-linecap="round" /><line x1="62.6511" y1="317.984" x2="61" y2="318.67" stroke="rgb(79,140,255)" stroke-width="2.3333333333333335" stroke-linecap="round" /><line x1="61" y1="318.67" x2="47" y2="318.67" stroke="rgb(79,140,255)" stroke-width="2.3333333333333335" stroke-linecap="round" />
<line x1="56.33" y1="295.33" x2="56.33" y2="301.17" stroke="rgb(79,140,255)" stroke-width="2.3333333333333335" stroke-linecap="round" /><line x1="56.33" y1="301.17" x2="57.5" y2="302.33" stroke="rgb(79,140,255)" stroke-width="2.3333333333333335" stroke-linecap="round" /><line x1="57.5" y1="302.33" x2="63.33" y2="302.33" stroke="rgb(79,140,255)" stroke-width="2.3333333333333335" stroke-linecap="round" /><line x1="51.67" y1="303.5" x2="49.33" y2="303.5" stroke="rgb(79,140,255)" stroke-width="2.3333333333333335" stroke-linecap="round" /><line x1="58.67" y1="308.17" x2="49.33" y2="308.17" stroke="rgb(79,140,255)" stroke-width="2.3333333333333335" stroke-linecap="round" /><line x1="58.67" y1="312.83" x2="49.33" y2="312.83" stroke="rgb(79,140,255)" stroke-width="2.3333333333333335" stroke-linecap="round" />
<text x='84' y='297.6' font-family='"Inter", "Apple SD Gothic Neo", "Pretendard", "Noto Sans KR", sans-serif' font-size='16' font-weight='500' font-style='normal' fill='rgb(34,34,34)' text-anchor='start'><tspan x="84" dy="0">개인정보 처리방침 (필수)</tspan></text>
<text x='84' y='322.05' font-family='"Inter", "Apple SD Gothic Neo", "Pretendard", "Noto Sans KR", sans-serif' font-size='13' font-weight='400' font-style='normal' fill='rgb(136,136,136)' text-anchor='start'><tspan x="84" dy="0">자세히 보기</tspan></text>
<line x1="322.5" y1="312" x2="327.5" y2="307" stroke="rgb(176,176,176)" stroke-width="1.6666666666666667" stroke-linecap="round" /><line x1="327.5" y1="307" x2="322.5" y2="302" stroke="rgb(176,176,176)" stroke-width="1.6666666666666667" stroke-linecap="round" />
<rect x="24" y="362" width="327" height="78" fill="rgb(255,255,255)" rx="16" ry="16" />
<line x1="47" y1="412.67" x2="45.3489" y2="411.984" stroke="rgb(79,140,255)" stroke-width="2.3333333333333335" stroke-linecap="round" /><line x1="45.3489" y1="411.984" x2="44.67" y2="410.33" stroke="rgb(79,140,255)" stroke-width="2.3333333333333335" stroke-linecap="round" /><line x1="44.67" y1="410.33" x2="44.67" y2="391.67" stroke="rgb(79,140,255)" stroke-width="2.3333333333333335" stroke-linecap="round" /><line x1="44.67" y1="391.67" x2="45.3489" y2="390.016" stroke="rgb(79,140,255)" stroke-width="2.3333333333333335" stroke-linecap="round" /><line x1="45.3489" y1="390.016" x2="47" y2="389.33" stroke="rgb(79,140,255)" stroke-width="2.3333333333333335" stroke-linecap="round" /><line x1="47" y1="389.33" x2="56.33" y2="389.33" stroke="rgb(79,140,255)" stroke-width="2.3333333333333335" stroke-linecap="round" /><line x1="56.33" y1="389.33" x2="58.32" y2="390.16" stroke="rgb(79,140,255)" stroke-width="2.3333333333333335" stroke-linecap="round" /><line x1="58.32" y1="390.16" x2="62.51" y2="394.34" stroke="rgb(79,140,255)" stroke-width="2.3333333333333335" stroke-linecap="round" /><line x1="62.51" y1="394.34" x2="63.33" y2="396.33" stroke="rgb(79,140,255)" stroke-width="2.3333333333333335" stroke-linecap="round" /><line x1="63.33" y1="396.33" x2="63.33" y2="410.33" stroke="rgb(79,140,255)" stroke-width="2.3333333333333335" stroke-linecap="round" /><line x1="63.33" y1="410.33" x2="62.6511" y2="411.984" stroke="rgb(79,140,255)" stroke-width="2.3333333333333335" stroke-linecap="round" /><line x1="62.6511" y1="411.984" x2="61" y2="412.67" stroke="rgb(79,140,255)" stroke-width="2.3333333333333335" stroke-linecap="round" /><line x1="61" y1="412.67" x2="47" y2="412.67" stroke="rgb(79,140,255)" stroke-width="2.3333333333333335" stroke-linecap="round" />
<line x1="56.33" y1="389.33" x2="56.33" y2="395.17" stroke="rgb(79,140,255)" stroke-width="2.3333333333333335" stroke-linecap="round" /><line x1="56.33" y1="395.17" x2="57.5" y2="396.33" stroke="rgb(79,140,255)" stroke-width="2.3333333333333335" stroke-linecap="round" /><line x1="57.5" y1="396.33" x2="63.33" y2="396.33" stroke="rgb(79,140,255)" stroke-width="2.3333333333333335" stroke-linecap="round" /><line x1="51.67" y1="397.5" x2="49.33" y2="397.5" stroke="rgb(79,140,255)" stroke-width="2.3333333333333335" stroke-linecap="round" /><line x1="58.67" y1="402.17" x2="49.33" y2="402.17" stroke="rgb(79,140,255)" stroke-width="2.3333333333333335" stroke-linecap="round" /><line x1="58.67" y1="406.83" x2="49.33" y2="406.83" stroke="rgb(79,140,255)" stroke-width="2.3333333333333335" stroke-linecap="round" />
<text x='84' y='391.6' font-family='"Inter", "Apple SD Gothic Neo", "Pretendard", "Noto Sans KR", sans-serif' font-size='16' font-weight='500' font-style='normal' fill='rgb(34,34,34)' text-anchor='start'><tspan x="84" dy="0">마케팅 정보 수신 동의 (선택)</tspan></text>
<text x='84' y='416.05' font-family='"Inter", "Apple SD Gothic Neo", "Pretendard", "Noto Sans KR", sans-serif' font-size='13' font-weight='400' font-style='normal' fill='rgb(136,136,136)' text-anchor='start'><tspan x="84" dy="0">자세히 보기</tspan></text>
<line x1="322.5" y1="406" x2="327.5" y2="401" stroke="rgb(176,176,176)" stroke-width="1.6666666666666667" stroke-linecap="round" /><line x1="327.5" y1="401" x2="322.5" y2="396" stroke="rgb(176,176,176)" stroke-width="1.6666666666666667" stroke-linecap="round" />
<rect x="24" y="465" width="20" height="20" fill="rgb(255,255,255)" stroke="rgb(79,140,255)" stroke-width="2" rx="4" ry="4" />
<text x='52' y='476.75' font-family='"Inter", "Apple SD Gothic Neo", "Pretendard", "Noto Sans KR", sans-serif' font-size='15' font-weight='400' font-style='normal' fill='rgb(34,34,34)' text-anchor='start'><tspan x="52" dy="0">전체 약관에 동의합니다</tspan></text>
<rect x="24" y="493" width="327" height="48" fill="rgb(79,140,255)" rx="12" ry="12" />
<text x='167' y='519.45' font-family='"Inter", "Apple SD Gothic Neo", "Pretendard", "Noto Sans KR", sans-serif' font-size='17' font-weight='700' font-style='normal' fill='rgb(255,255,255)' text-anchor='start'><tspan x="167" dy="0">동의하기</tspan></text>
</svg>
